<?xml version="1.0"?>
<svg width="700" height="1024" xmlns="http://www.w3.org/2000/svg" xmlns:svg="http://www.w3.org/2000/svg" preserveAspectRatio="xMidYMid meet" version="1.0">
 <g class="layer">
  <title>Layer 1</title>
  <g fill="#000000" id="svg_1" transform="matrix(0.194105 0 0 -0.194105 -45.4216 0.170382)">
   <path d="m2180.87,-220.59c-120,-28 -212,-129 -262,-290l-18,-56l-48,33c-115,77 -312,51 -398,-53c-58,-70 -85,-150 -101,-298c-11,-96 -47,-1181 -52,-1532c-2,-117 -5,-209 -8,-205c-3,4 -12,25 -19,47c-30,87 -105,254 -149,329c-79,133 -204,245 -327,292c-75,28 -212,26 -283,-5c-88,-39 -152,-132 -152,-221c0,-86 29,-176 115,-365c104,-226 205,-480 310,-780c86,-244 124,-332 192,-450c80,-137 179,-259 324,-398l140,-133l-7,-230c-4,-157 -3,-242 5,-269c41,-150 320,-236 821,-251c364,-12 753,37 905,113c49,25 105,85 115,125c6,20 9,136 8,266l-2,229l85,106c179,223 273,476 310,837c23,222 18,735 -16,1520c-28,644 -42,727 -136,834c-74,85 -231,118 -327,69c-29,-14 -44,-17 -47,-10c-2,7 -6,64 -9,127c-7,130 -17,180 -48,247c-80,170 -296,223 -461,112l-41,-28l-16,53c-57,183 -220,278 -403,235zm171,-123c55,-29 99,-92 121,-173c8,-29 13,-286 16,-825c4,-701 9,-846 29,-865c13,-13 71,-3 83,13c10,14 13,164 13,714c0,451 4,717 11,756c21,116 89,176 200,176c69,0 113,-22 146,-71c49,-72 48,-58 48,-893c0,-685 2,-789 15,-802c27,-25 56,-28 81,-7l24,19l6,544c4,405 9,553 18,583c25,76 119,133 195,118c43,-9 110,-81 129,-139c32,-98 46,-294 71,-964c38,-995 25,-1286 -65,-1575c-57,-182 -128,-306 -272,-474c-51,-60 -73,-125 -63,-194c3,-23 6,-112 7,-197c2,-125 -1,-161 -14,-186c-57,-111 -561,-180 -1047,-144c-297,22 -486,80 -532,164c-9,15 -12,84 -10,236c1,118 -2,233 -7,254c-8,32 -35,64 -154,177c-270,258 -352,397 -517,874c-96,279 -161,444 -259,654c-138,296 -158,378 -108,452c35,53 79,71 159,65c88,-6 162,-43 232,-115c96,-98 136,-162 223,-361c114,-261 145,-291 374,-355c161,-46 324,-125 447,-217c152,-115 252,-232 332,-391c51,-102 66,-116 104,-99c38,17 34,66 -12,166c-78,163 -239,342 -412,456c-148,97 -250,142 -462,205l-88,26l0,82c0,45 5,190 10,322c5,132 16,474 24,760c18,592 28,738 57,823c25,76 74,126 136,142c100,25 184,-14 230,-107l28,-58l1,-704l1,-705l23,-18c24,-20 47,-23 69,-9c24,16 30,177 31,868c0,415 4,691 11,740c18,130 69,220 143,254c49,22 136,25 174,5z" id="svg_2"/>
  </g>
 </g>
</svg>