<?xml version="1.0"?>
<svg width="700" height="1024" xmlns="http://www.w3.org/2000/svg" xmlns:svg="http://www.w3.org/2000/svg" preserveAspectRatio="xMidYMid meet" version="1.0">
 <g class="layer">
  <title>Layer 1</title>
  <g fill="#000000" id="svg_1" transform="matrix(0.193023 0 0 -0.193023 -27.2701 0.930228)">
   <path d="m1717.63,-610.96c-111,-30 -204,-99 -247,-184c-9,-17 -19,-31 -22,-31c-2,0 -21,8 -42,19c-56,28 -87,33 -202,32c-165,-1 -270,-37 -369,-127c-100,-91 -141,-200 -145,-388l-2,-119l-45,-12c-106,-26 -221,-125 -280,-240c-89,-172 -128,-371 -136,-690c-4,-175 -2,-239 11,-311c30,-173 103,-334 223,-491c97,-128 292,-341 435,-475c74,-70 148,-146 163,-168l28,-40l-9,-193c-5,-105 -9,-250 -9,-322c0,-116 3,-135 23,-177c45,-91 136,-147 326,-202c87,-26 207,-51 281,-60c184,-22 324,-28 525,-23c544,15 889,112 961,272c22,47 24,185 9,504c-6,139 -6,200 2,215c6,12 40,53 76,91c178,192 265,351 332,611c60,230 65,300 64,834c-1,502 -14,804 -40,950c-20,113 -63,201 -134,271c-116,113 -256,144 -404,88c-28,-10 -51,-18 -52,-16c-1,1 -14,26 -28,55c-71,141 -217,222 -401,222c-103,0 -165,-19 -240,-71c-54,-38 -60,-40 -70,-24c-53,92 -129,154 -233,191c-56,20 -86,24 -182,23c-66,0 -137,-6 -167,-14zm313,-125c76,-26 122,-64 159,-131l30,-54l0,-575c0,-532 -1,-579 -18,-628c-32,-92 -103,-143 -225,-163c-86,-14 -188,4 -292,52l-70,32l48,22c71,33 175,135 211,206c64,128 79,316 34,404c-24,46 -64,86 -109,108c-37,19 -139,37 -206,37l-48,0l0,255c0,282 3,301 63,363c63,66 136,90 268,91c70,1 111,-4 155,-19zm698,-114c96,-29 158,-92 192,-195c15,-46 15,-73 5,-273c-22,-414 -48,-669 -78,-762c-22,-68 -85,-130 -154,-150c-133,-40 -276,5 -330,104c-19,33 -26,1033 -9,1117c17,79 74,137 160,164c42,13 164,10 214,-5zm-1389,-62c78,-40 80,-48 83,-295l3,-220l-103,5c-57,3 -193,8 -303,12c-110,3 -202,8 -205,11c-3,2 -5,48 -5,101c0,137 28,224 94,290c52,54 129,98 195,112c70,15 197,6 241,-16zm2011,-190c151,-93 199,-298 152,-649c-37,-277 -164,-455 -327,-455c-60,0 -129,23 -170,58l-33,27l16,125c18,140 30,292 46,580c6,107 15,211 20,230c29,109 184,153 296,84zm-1911,-434c227,-9 254,-12 294,-33c55,-27 81,-73 81,-142c0,-115 -56,-243 -139,-316c-64,-57 -138,-89 -247,-107c-87,-14 -105,-14 -205,1c-68,10 -137,28 -181,47c-85,35 -109,37 -132,11c-25,-28 -13,-55 40,-91c47,-33 162,-80 194,-80c27,0 25,-23 -6,-90c-37,-81 -91,-146 -167,-202c-61,-46 -68,-54 -65,-82c3,-27 7,-31 35,-34c99,-10 286,184 334,346c7,23 15,42 18,42c3,0 58,-7 122,-15c267,-33 520,-180 679,-395c82,-111 141,-251 165,-393c8,-47 41,-67 81,-48c26,12 27,13 20,80c-18,195 -144,430 -311,578c-37,33 -53,54 -44,56c129,34 220,82 259,137l21,30l47,-39c59,-50 103,-68 192,-81c85,-12 193,1 251,31c23,11 60,38 84,60c23,21 45,39 49,39c4,0 36,-17 71,-39c84,-50 167,-68 250,-54c118,20 188,72 270,197l50,77l8,-58c10,-72 2,-458 -13,-613c-44,-451 -137,-687 -368,-931c-124,-131 -117,-98 -102,-473c14,-366 13,-372 -60,-425c-128,-92 -441,-144 -870,-144c-393,0 -682,47 -849,139c-100,54 -97,36 -92,415c3,316 2,330 -18,372c-14,28 -87,107 -223,237c-398,385 -554,612 -603,879c-22,119 -16,443 10,591c59,326 152,478 324,527c50,14 267,12 746,-7z" id="svg_2"/>
  </g>
 </g>
</svg>