<?xml version="1.0"?>
<svg width="700" height="1024" xmlns="http://www.w3.org/2000/svg" xmlns:svg="http://www.w3.org/2000/svg" preserveAspectRatio="xMidYMid meet" version="1.0">
 <g class="layer">
  <title>Layer 1</title>
  <g fill="#000000" id="svg_1" transform="matrix(0.205472 0 0 -0.205472 -782.357 -404.616)">
   <path d="m4996.65,-1990.42c-127,-41 -205,-141 -230,-294c-19,-108 4,-284 66,-526c14,-53 43,-166 65,-251c72,-276 190,-714 195,-722c7,-11 2,-10 -42,8c-60,25 -197,15 -268,-20c-101,-50 -202,-165 -208,-238c-2,-23 -5,-24 -88,-24c-70,0 -95,-4 -142,-26c-117,-54 -194,-158 -218,-296c-11,-57 -10,-101 3,-253c9,-101 19,-254 22,-339c20,-512 137,-834 408,-1130l97,-105l0,-206c0,-296 16,-337 163,-409c160,-78 399,-119 702,-120c468,0 841,112 884,267c6,22 11,140 11,274l0,235l75,90c190,225 287,418 347,689c17,78 22,135 22,260c1,155 0,163 -31,252c-18,50 -55,137 -82,192c-52,103 -111,285 -132,406c-19,111 -6,407 27,595c26,155 139,714 190,950c22,99 28,152 28,255l1,130l-36,65c-102,185 -332,215 -484,63c-108,-108 -188,-360 -325,-1028c-60,-298 -104,-484 -122,-517c-4,-10 -17,-22 -28,-28c-16,-9 -22,-6 -33,17c-15,29 -70,223 -152,538c-189,725 -268,1004 -303,1069c-37,67 -99,129 -158,156c-53,24 -179,36 -224,21zm147,-122c42,-16 91,-67 123,-129c42,-83 46,-98 276,-955c130,-486 149,-546 186,-617c41,-77 67,-99 124,-106c127,-14 166,69 264,558c102,509 190,850 246,962c30,58 78,114 115,134c43,22 135,18 175,-7c52,-32 86,-98 92,-178c5,-71 -9,-150 -93,-536c-105,-481 -158,-794 -171,-1000c-7,-121 12,-288 45,-395c11,-33 16,-60 12,-60c-4,0 -18,12 -32,26c-38,42 -156,127 -239,172c-95,52 -162,67 -385,87c-99,9 -220,23 -270,31c-112,19 -219,21 -269,4c-20,-6 -38,-10 -40,-8c-1,1 -14,53 -29,113c-15,61 -70,274 -122,475c-149,566 -253,994 -266,1086c-15,106 -1,202 40,267c46,72 141,105 218,76zm-74,-1797c51,-35 84,-93 109,-197c21,-85 21,-87 4,-175c-22,-108 -18,-203 13,-283c29,-74 118,-171 195,-212c63,-34 66,-43 40,-118c-21,-62 -96,-130 -160,-146c-38,-10 -56,-9 -103,4c-89,26 -151,97 -239,275c-66,132 -183,432 -218,555c-30,108 -12,197 53,256c85,79 224,98 306,41zm-524,-289c45,-34 61,-66 130,-263c97,-274 202,-491 278,-572c33,-35 26,-64 -26,-111c-68,-62 -168,-74 -258,-33c-103,48 -198,160 -323,377c-87,152 -112,227 -112,332c-1,66 4,86 30,140c36,73 84,123 138,143c48,17 109,12 143,-13zm1086,-42c88,-11 201,-23 250,-26c119,-9 224,-29 282,-55c178,-78 420,-314 512,-499c58,-115 66,-155 65,-306c-2,-325 -109,-588 -355,-881c-51,-60 -82,-107 -89,-134c-7,-26 -10,-125 -8,-269c3,-261 6,-251 -85,-298c-307,-155 -1125,-147 -1358,13c-60,41 -63,55 -64,294c-1,160 -4,221 -14,240c-8,14 -47,60 -87,102c-263,277 -381,581 -410,1058l-6,105l36,-59c106,-172 204,-275 316,-329c58,-28 75,-32 155,-32c80,0 97,3 155,31c36,18 91,55 122,83c56,51 57,51 100,41c151,-34 298,34 368,171c16,31 34,78 41,103c9,35 15,45 28,42c63,-18 149,-29 223,-30l86,-1l-36,-29c-72,-56 -192,-189 -246,-269c-98,-147 -143,-287 -152,-466c-6,-136 4,-167 50,-164c16,1 31,5 34,8c3,2 11,58 19,122c7,65 20,145 28,178c22,89 116,270 180,348c47,57 159,157 175,157c3,0 18,-20 33,-45c44,-69 114,-127 151,-123c23,2 33,10 40,30c9,25 5,33 -43,83c-59,62 -101,146 -109,214c-8,77 -15,81 -155,74c-94,-4 -142,-2 -207,11c-165,34 -296,117 -338,214c-57,133 -31,257 63,298c40,18 64,17 250,-5z" id="svg_2"/>
  </g>
 </g>
</svg>